<?xml version="1.0" standalone="no"?>
<!DOCTYPE svg PUBLIC "-//W3C//DTD SVG 20010904//EN"
 "http://www.w3.org/TR/2001/REC-SVG-20010904/DTD/svg10.dtd">
<svg version="1.0" xmlns="http://www.w3.org/2000/svg"
 width="728.000000pt" height="728.000000pt" viewBox="0 0 728.000000 728.000000"
 preserveAspectRatio="xMidYMid meet">
<metadata>
Created by potrace 1.14, written by Peter Selinger 2001-2017
</metadata>
<g transform="translate(0.000000,728.000000) scale(0.100000,-0.100000)"
fill="#000000" stroke="none">
<path d="M3418 7275 c-1 -1 -37 -5 -78 -8 -112 -9 -225 -22 -225 -27 0 -1 -16
-3 -35 -4 -19 -1 -44 -5 -55 -9 -11 -4 -36 -9 -55 -11 -36 -5 -42 -7 -125 -26
-27 -6 -58 -13 -68 -15 -10 -2 -52 -14 -95 -25 -42 -12 -84 -23 -92 -25 -26
-6 -224 -76 -255 -90 -16 -7 -70 -30 -120 -51 -130 -54 -373 -179 -387 -199
-4 -5 -8 -7 -8 -3 0 6 -121 -69 -147 -91 -7 -6 -15 -11 -18 -11 -15 0 -320
-229 -360 -270 -5 -6 -30 -27 -54 -48 -59 -49 -254 -245 -313 -313 -40 -46
-88 -105 -178 -219 -27 -34 -178 -256 -200 -294 -10 -17 -34 -60 -55 -96 -39
-68 -147 -278 -151 -295 -2 -5 -21 -52 -44 -104 -47 -107 -109 -282 -123 -346
-2 -5 -6 -15 -9 -21 -4 -6 -10 -24 -12 -40 -3 -16 -8 -38 -11 -49 -49 -198
-61 -249 -71 -315 -2 -19 -7 -46 -9 -60 -3 -14 -7 -47 -11 -75 -3 -27 -8 -61
-10 -75 -18 -124 -26 -578 -12 -720 4 -36 9 -94 12 -130 3 -36 8 -76 11 -90 3
-14 8 -41 11 -60 11 -71 14 -87 33 -180 37 -175 135 -497 180 -595 26 -55 59
-133 66 -155 4 -14 11 -27 14 -30 4 -3 24 -43 45 -90 43 -94 56 -115 65 -103
5 7 56 34 71 38 3 0 46 20 95 44 228 111 397 190 414 196 14 4 21 -2 31 -25 7
-16 16 -30 20 -30 4 0 10 -8 13 -17 6 -18 37 -73 47 -83 3 -3 25 -34 49 -70
67 -100 153 -210 162 -210 5 0 9 -5 9 -11 0 -13 36 -53 170 -188 143 -145 195
-190 335 -293 66 -49 125 -92 131 -97 6 -5 34 -22 62 -38 49 -28 51 -30 38
-54 -11 -20 -46 -80 -165 -279 -112 -186 -161 -270 -161 -274 0 -4 152 -91
230 -132 111 -57 313 -141 460 -191 41 -13 82 -27 90 -30 13 -5 31 -10 65 -17
6 -1 15 -4 20 -8 9 -5 146 -40 205 -52 14 -3 36 -7 50 -10 55 -12 77 -16 114
-22 21 -3 48 -7 59 -10 25 -4 78 -12 127 -18 229 -28 674 -29 850 -1 14 2 48
7 75 10 28 3 75 10 105 15 30 5 67 11 83 14 15 3 35 7 45 10 9 3 28 7 42 10
96 17 297 75 425 121 55 20 106 37 113 38 6 0 12 4 12 9 0 4 6 8 14 8 17 0 78
27 226 98 63 30 118 54 123 54 4 -1 7 2 7 7 0 5 8 11 18 14 9 3 40 20 67 36
28 17 57 34 65 38 31 14 155 96 162 107 4 6 8 8 8 4 0 -5 19 7 43 25 24 17 56
41 71 52 267 188 591 512 794 795 34 47 65 90 70 95 4 6 19 28 32 50 13 22 28
41 32 43 4 2 8 8 8 14 0 5 8 22 19 36 17 25 31 50 97 170 15 26 30 51 35 57 5
5 9 17 9 27 0 10 5 18 10 18 6 0 10 9 10 19 0 11 3 21 8 23 7 3 42 73 42 83 0
3 7 19 15 35 8 16 15 32 15 35 -1 3 6 18 15 33 20 35 97 241 100 268 2 12 7
30 13 40 9 17 57 183 67 232 2 9 9 40 15 67 6 28 14 59 16 70 2 11 6 31 9 45
3 14 8 41 11 60 2 19 7 46 9 60 9 44 18 122 32 270 15 151 8 611 -12 720 -2
14 -7 48 -10 75 -6 53 -11 92 -21 140 -3 17 -7 39 -9 50 -11 57 -18 89 -41
185 -14 58 -27 112 -29 120 -2 8 -4 16 -5 18 -2 1 -3 5 -4 10 -8 30 -30 101
-36 117 -10 24 -64 178 -66 185 -1 6 -16 43 -39 95 -10 22 -19 42 -20 45 -15
42 -126 271 -136 280 -3 3 -16 28 -30 57 -13 29 -29 54 -36 57 -6 3 -49 -17
-94 -45 -45 -27 -86 -49 -91 -49 -4 0 -8 -4 -8 -9 0 -5 -8 -12 -17 -15 -10 -3
-27 -12 -38 -19 -41 -25 -287 -172 -307 -184 -19 -10 -27 -1 -115 130 -53 78
-98 144 -102 147 -6 5 -83 98 -106 128 -25 33 -276 283 -324 323 -29 24 -59
49 -65 54 -12 12 -134 103 -162 122 -11 7 -48 33 -84 58 -36 25 -69 45 -74 45
-5 0 -17 6 -25 14 -9 8 -40 26 -68 41 l-53 27 15 34 c8 19 11 34 7 34 -4 0 -2
4 3 8 6 4 35 66 64 137 29 72 59 144 66 160 105 243 114 275 79 275 -15 0 -24
4 -84 36 -19 10 -35 17 -35 15 0 -3 -121 44 -200 79 -25 11 -117 44 -127 46
-5 1 -11 3 -15 4 -5 1 -11 2 -15 1 -5 0 -8 3 -8 7 0 5 -6 9 -12 9 -7 0 -51 11
-98 25 -47 14 -98 29 -115 33 -16 5 -34 9 -40 11 -5 2 -21 5 -35 8 -14 3 -35
8 -47 11 -54 12 -69 15 -107 21 -22 3 -43 7 -46 9 -3 1 -27 6 -55 9 -27 4 -57
9 -65 11 -8 2 -46 7 -85 11 -38 3 -83 8 -100 11 -37 5 -542 13 -547 8z m-1021
-1537 c6 -7 21 -33 34 -58 13 -25 27 -47 30 -50 3 -3 23 -36 45 -74 78 -139
168 -289 201 -338 l25 -38 42 26 c22 14 66 36 96 50 30 14 64 29 75 34 67 31
213 79 295 97 154 34 234 41 425 38 110 -1 214 -6 230 -9 17 -4 64 -14 105
-22 97 -19 253 -65 261 -77 3 -5 9 -9 12 -9 28 0 291 -125 306 -146 4 -4 18
-13 33 -21 15 -8 37 -22 47 -33 11 -10 25 -18 31 -18 5 0 10 -4 10 -8 0 -4 12
-15 28 -25 15 -9 50 -38 79 -64 29 -26 60 -55 70 -64 62 -53 210 -238 278
-346 56 -89 140 -267 165 -348 7 -22 16 -49 21 -60 11 -26 40 -142 45 -180 3
-16 9 -50 15 -75 5 -25 12 -79 14 -120 2 -41 5 -77 5 -80 7 -21 -5 -269 -15
-318 -2 -11 -7 -42 -10 -69 -4 -26 -11 -66 -17 -88 -6 -22 -12 -47 -14 -55
-25 -107 -89 -274 -148 -386 l-44 -82 279 -167 c153 -91 281 -170 284 -175 10
-16 -136 -227 -245 -354 -34 -40 -218 -224 -259 -260 -68 -58 -250 -192 -302
-221 -10 -5 -55 -31 -100 -57 -45 -27 -87 -48 -94 -48 -8 0 -15 -3 -17 -7 -6
-14 -94 -51 -104 -45 -5 4 -10 15 -12 24 -1 9 -32 83 -68 165 -35 81 -69 157
-73 168 -5 11 -18 40 -29 65 -41 92 -60 136 -66 158 -4 12 -12 22 -18 22 -6 0
-53 -16 -106 -36 -53 -20 -106 -38 -117 -40 -11 -2 -47 -10 -80 -18 -137 -34
-251 -47 -408 -47 -132 -1 -220 8 -352 36 -86 18 -124 28 -194 50 -59 18 -243
95 -251 104 -3 3 -27 17 -55 31 -160 81 -401 281 -532 445 -96 120 -251 391
-278 488 -2 4 -4 9 -5 12 -1 3 -3 9 -4 14 0 5 -4 13 -8 17 -5 4 -8 16 -8 26 0
10 -4 26 -9 36 -9 15 -21 59 -20 72 0 3 -5 18 -11 35 -6 16 -14 48 -16 70 -3
22 -10 56 -15 76 -8 31 -20 176 -21 264 -1 44 12 257 16 264 2 3 7 26 10 51 7
55 13 86 21 110 3 10 7 27 9 37 2 10 12 45 22 78 10 33 19 62 19 65 1 3 7 19
14 35 6 17 16 42 22 57 11 27 6 48 -11 48 -5 0 -33 11 -62 24 -205 92 -434
190 -440 188 -5 -1 -8 3 -8 8 0 5 -3 9 -7 8 -5 -1 -22 5 -40 13 l-32 14 58
115 c32 63 70 135 86 160 71 114 130 200 137 200 4 0 8 5 8 10 0 6 6 18 13 26
6 8 17 20 22 27 109 134 258 287 350 362 27 22 57 48 67 58 10 9 22 17 27 17
5 0 11 3 13 8 5 12 196 142 209 142 4 0 11 -6 16 -12z"/>
</g>
</svg>
